<?xml version="1.0" encoding="UTF-8"?>
<svg width="386px" height="424px" viewBox="0 0 386 424" version="1.1" xmlns="http://www.w3.org/2000/svg" xmlns:xlink="http://www.w3.org/1999/xlink">
    <!-- Generator: Sketch 55.2 (78181) - https://sketchapp.com -->
    <title>Group 10</title>
    <desc>Created with Sketch.</desc>
    <defs>
        <linearGradient x1="29.9895833%" y1="73.6097214%" x2="95.35%" y2="1.65486453%" id="linearGradient-1">
            <stop stop-color="#26C2C8" offset="0%"></stop>
            <stop stop-color="#38B0F4" offset="100%"></stop>
        </linearGradient>
        <circle id="path-2" cx="212.535882" cy="173.194293" r="173.194293"></circle>
        <polygon id="path-4" points="0 184.648309 505.934628 184.648309 505.934628 0 0 0"></polygon>
        <path d="M72.6255539,0.224333179 C63.4729915,1.83918516 13.4021729,1.30090117 13.4021729,1.30090117 L13.4021729,1.30090117 C13.4021729,1.30090117 -3.28809997,22.2980241 1.01875016,26.6054525 L1.01875016,26.6054525 C5.32617846,30.9123026 19.3244532,107.364819 19.3244532,107.364819 L19.3244532,107.364819 C19.3244532,107.364819 56.473565,102.519106 69.3952718,102.519106 L69.3952718,102.519106 C82.3169785,102.519106 87.7009748,100.365392 87.7009748,100.365392 L87.7009748,100.365392 C87.7009748,100.365392 70.4718397,65.9082785 78.5478342,50.2951518 L78.5478342,50.2951518 C86.6238286,34.6814469 98.4683892,17.9905958 98.4683892,17.9905958 L98.4683892,17.9905958 L92.5461089,10.9917476 C92.5461089,10.9917476 83.0564685,0.0792104265 74.3225072,0.0792104265 L74.3225072,0.0792104265 C73.7524234,0.0792104265 73.1863868,0.12546469 72.6255539,0.224333179" id="path-6"></path>
        <linearGradient x1="0.000278888872%" y1="49.9997782%" x2="100.000287%" y2="49.9997782%" id="linearGradient-8">
            <stop stop-color="#F48938" offset="0%"></stop>
            <stop stop-color="#E2A328" offset="100%"></stop>
        </linearGradient>
        <path d="M2.34798206,33.6869802 C-4.11316039,44.4549728 6.11654819,77.2972345 6.11654819,77.2972345 L6.11654819,77.2972345 C6.11654819,77.2972345 10.4239765,87.5263649 13.6542586,89.1417951 L13.6542586,89.1417951 C16.8845408,90.7566471 17.4228248,108.523488 17.4228248,108.523488 L17.4228248,108.523488 L29.8062475,109.600634 C32.7202661,107.313939 35.2625161,104.589563 37.3433798,101.52464 L37.3433798,101.52464 C41.1125241,96.1412215 34.1130976,70.8360921 31.9599616,65.4520958 L31.9599616,65.4520958 C29.8062475,60.0680995 29.2673853,52.5309672 29.2673853,37.4561245 L29.2673853,37.4561245 C29.2673853,22.3807036 23.883389,3.53613846 23.883389,3.53613846 L23.883389,3.53613846 L14.7308266,0.306434497 C14.7308266,0.306434497 8.80854633,22.9189876 2.34798206,33.6869802" id="path-9"></path>
        <linearGradient x1="0.000222871642%" y1="49.9999463%" x2="100.000073%" y2="49.9999463%" id="linearGradient-11">
            <stop stop-color="#F48938" offset="0%"></stop>
            <stop stop-color="#E2A328" offset="100%"></stop>
        </linearGradient>
        <path d="M60.4202101,0.50532783 C50.1910797,1.58189582 36.1928049,2.12075799 32.4236606,2.12075799 L32.4236606,2.12075799 C28.6550945,2.12075799 7.11910935,-0.571818334 3.88882722,13.4264564 L3.88882722,13.4264564 C2.11439803,21.1144932 0.015610814,29.7767604 0,37.8082351 L0,37.8082351 L0,37.9868922 C0.0127199225,44.5116343 1.41538047,50.6114153 5.5036792,55.4218587 L5.5036792,55.4218587 C5.5036792,55.4218587 8.73453951,102.800101 21.1173841,106.030961 L21.1173841,106.030961 C33.5008068,109.261243 66.3430685,113.030388 78.1870509,97.4161047 L78.1870509,97.4161047 C90.0316115,81.802978 85.1864774,64.5744211 85.1864774,64.5744211 L85.1864774,64.5744211 L79.8024811,64.5744211 L65.2659224,23.117881 C65.2659224,23.117881 70.411131,0.471793489 61.0793333,0.469480776 L61.0793333,0.469480776 C60.8665637,0.469480776 60.6480123,0.48162252 60.4202101,0.50532783" id="path-12"></path>
        <linearGradient x1="0%" y1="49.9999451%" x2="100.000204%" y2="49.9999451%" id="linearGradient-14">
            <stop stop-color="#102650" offset="0%"></stop>
            <stop stop-color="#113466" offset="100%"></stop>
        </linearGradient>
        <path d="M1.49921632,4.44850381 C-0.115635659,10.9102244 -0.654497831,24.369637 7.4214966,25.9850671 L7.4214966,25.9850671 C11.651449,26.830942 19.4267907,26.0521358 27.4201057,25.2733297 L27.4201057,25.2733297 C34.6866505,24.5650612 42.1347433,23.857371 47.2631848,24.369637 L47.2631848,24.369637 C58.0305992,25.446205 70.9517277,18.4467785 70.9517277,18.4467785 L70.9517277,18.4467785 C70.9517277,18.4467785 81.7202985,22.2159228 81.7202985,18.4467785 L81.7202985,18.4467785 C81.7202985,14.6787906 72.0288739,11.4479303 66.1065936,9.2942161 L66.1065936,9.2942161 C60.1843133,7.14108013 32.1877639,3.91079799 27.8803356,2.29536783 L27.8803356,2.29536783 C25.6566619,1.46163473 19.1255598,0.341125194 13.107302,0.340547016 L13.107302,0.340547016 C7.46890722,0.340547016 2.2803352,1.3240283 1.49921632,4.44850381" id="path-15"></path>
        <linearGradient x1="-0.000223537209%" y1="49.9997138%" x2="99.9997091%" y2="49.9997138%" id="linearGradient-17">
            <stop stop-color="#F48938" offset="0%"></stop>
            <stop stop-color="#E2A328" offset="100%"></stop>
        </linearGradient>
        <polygon id="path-18" points="0.548402113 0.0890394575 39.8645262 0.0890394575 39.8645262 24.9504749 0.548402113 24.9504749"></polygon>
    </defs>
    <g id="Page-1" stroke="none" stroke-width="1" fill="none" fill-rule="evenodd">
        <g id="TravellerHome" transform="translate(-283.000000, -1764.000000)">
            <g id="Group-10" transform="translate(283.073028, 1764.693402)">
                <g id="Group-2">
                    <mask id="mask-3" fill="white">
                        <use xlink:href="#path-2"></use>
                    </mask>
                    <use id="Oval-Copy-3" fill="url(#linearGradient-1)" xlink:href="#path-2"></use>
                    <g id="Group-4" opacity="0.1" mask="url(#mask-3)" fill="#FFFFFF">
                        <g transform="translate(106.887363, 51.958288)">
                            <path d="M105.009544,-3.25903241e-05 L0.10259434,60.4478486 L-6.51806481e-05,181.523184 L104.801292,242.149986 L209.708893,181.702756 L209.812204,60.6274213 L105.009544,-3.25903241e-05 Z M19.3814005,170.356435 L19.4671131,71.6497948 L104.98999,22.369314 L190.429761,71.7957994 L190.345352,170.501788 L104.82052,219.781617 L19.3814005,170.356435 Z" id="Fill-1"></path>
                            <polygon id="Fill-2" points="39.3598884 83.1581878 39.3598884 83.1901263 67.1033794 83.1901263 67.1033794 174.96839 101.63022 194.941696 101.63022 47.2778705"></polygon>
                            <polygon id="Fill-3" points="141.844203 159.0034 141.844203 66.6854411 108.179051 47.2091375 108.179051 194.872311 170.434391 159.0034"></polygon>
                        </g>
                    </g>
                    <g id="Group-68" mask="url(#mask-3)">
                        <g transform="translate(-62.349946, 41.566630)">
                            <polygon id="Fill-5" stroke="none" fill="#0D2660" fill-rule="evenodd" points="17.8834818 135.064486 14.2983813 129.088556 47.7654202 100.402413 133.823847 100.402413 133.823847 108.76841 102.746875 142.236212 66.8890067 149.407938"></polygon>
                            <polygon id="Fill-7" stroke="none" fill="#CCCCCC" fill-rule="evenodd" points="148.637534 117.236294 148.637534 98.535202 137.370511 98.535202 137.370511 104.432582 133.823542 100.402108 105.1374 129.089013 100.355741 133.869147 94.3798105 157.775155 105.1374 184.069705 160.118855 184.069705 160.118855 130.283284"></polygon>
                            <mask id="mask-5" fill="white">
                                <use xlink:href="#path-4"></use>
                            </mask>
                            <g id="Clip-10" stroke="none" fill="none"></g>
                            <polygon id="Fill-9" stroke="none" fill="#F2F2F2" fill-rule="evenodd" mask="url(#mask-5)" points="14.2984576 184.069477 105.137781 184.069477 105.137781 129.088022 14.2984576 129.088022"></polygon>
                            <polygon id="Fill-11" stroke="none" fill="#0D2660" fill-rule="evenodd" mask="url(#mask-5)" points="73.4629111 163.152959 92.5872602 163.152959 92.5872602 146.419439 73.4629111 146.419439"></polygon>
                            <polygon id="Fill-12" stroke="none" fill="#CCCCCC" fill-rule="evenodd" mask="url(#mask-5)" points="48.96053 184.069477 65.6940495 184.069477 65.6940495 145.821541 48.96053 145.821541"></polygon>
                            <polygon id="Fill-17" stroke="none" fill="#FFC107" fill-rule="evenodd" mask="url(#mask-5)" points="130.835806 152.395979 130.835806 146.419287 123.66408 146.419287 123.66408 152.395979 130.237908 152.395979"></polygon>
                            <polygon id="Fill-18" stroke="none" fill="#FFC107" fill-rule="evenodd" mask="url(#mask-5)" points="130.237755 157.176876 123.663927 157.176876 123.663927 163.152806 130.835653 163.152806 130.835653 157.176876"></polygon>
                            <polygon id="Fill-19" stroke="none" fill="#FFC107" fill-rule="evenodd" mask="url(#mask-5)" points="135.616092 152.395369 142.787819 152.395369 142.787819 146.419439 135.616092 146.419439"></polygon>
                            <polygon id="Fill-20" stroke="none" fill="#FFC107" fill-rule="evenodd" mask="url(#mask-5)" points="135.616092 163.152959 142.787819 163.152959 142.787819 157.177029 135.616092 157.177029"></polygon>
                            <polygon id="Fill-21" stroke="none" fill="#0D2660" fill-rule="evenodd" mask="url(#mask-5)" points="363.699331 135.064486 360.114231 129.088556 393.58127 100.402413 479.639697 100.402413 479.639697 108.76841 448.562725 142.236212 412.704856 149.407938"></polygon>
                            <polygon id="Fill-22" stroke="none" fill="#CCCCCC" fill-rule="evenodd" mask="url(#mask-5)" points="494.453765 117.236294 494.453765 98.535202 483.186742 98.535202 483.186742 104.432582 479.639773 100.402108 450.953631 129.089013 446.171972 133.869147 440.196041 157.775155 450.953631 184.069705 505.935086 184.069705 505.935086 130.283284"></polygon>
                            <polygon id="Fill-23" stroke="none" fill="#F2F2F2" fill-rule="evenodd" mask="url(#mask-5)" points="360.11385 184.069477 450.953173 184.069477 450.953173 129.088022 360.11385 129.088022"></polygon>
                            <polygon id="Fill-24" stroke="none" fill="#0D2660" fill-rule="evenodd" mask="url(#mask-5)" points="419.279066 163.152959 438.402652 163.152959 438.402652 146.419439 419.279066 146.419439"></polygon>
                            <polygon id="Fill-25" stroke="none" fill="#CCCCCC" fill-rule="evenodd" mask="url(#mask-5)" points="394.775922 184.069477 411.509442 184.069477 411.509442 145.821541 394.775922 145.821541"></polygon>
                            <polygon id="Fill-26" stroke="none" fill="#FFC107" fill-rule="evenodd" mask="url(#mask-5)" points="375.652564 151.797929 375.652564 145.821999 368.481601 145.821999 368.481601 151.797929 375.054666 151.797929"></polygon>
                            <polygon id="Fill-27" stroke="none" fill="#FFC107" fill-rule="evenodd" mask="url(#mask-5)" points="375.054514 156.578825 368.481448 156.578825 368.481448 162.555518 375.652412 162.555518 375.652412 156.578825"></polygon>
                            <polygon id="Fill-28" stroke="none" fill="#FFC107" fill-rule="evenodd" mask="url(#mask-5)" points="380.433232 151.798234 387.604958 151.798234 387.604958 145.821541 380.433232 145.821541"></polygon>
                            <polygon id="Fill-29" stroke="none" fill="#FFC107" fill-rule="evenodd" mask="url(#mask-5)" points="380.433232 162.555061 387.604958 162.555061 387.604958 156.57913 380.433232 156.57913"></polygon>
                            <polygon id="Fill-34" stroke="none" fill="#0D2660" fill-rule="evenodd" mask="url(#mask-5)" points="201.952806 34.6634451 195.976876 29.8817859 229.444677 0.000610100062 314.306546 0.000610100062 314.306546 26.2959228 259.325091 63.3495874"></polygon>
                            <polygon id="Fill-35" stroke="none" fill="#CCCCCC" fill-rule="evenodd" mask="url(#mask-5)" points="329.779598 16.7626517 329.779598 0.597287961 318.512575 0.597287961 318.512575 4.55683737 314.306698 0.000915150093 286.815589 29.882091 276.059525 37.0538172 259.379389 158.915204 284.533815 184.069629 342.99284 184.069629 342.99284 31.0771244"></polygon>
                            <polygon id="Fill-36" stroke="none" fill="#F2F2F2" fill-rule="evenodd" mask="url(#mask-5)" points="195.977105 184.069477 286.816428 184.069477 286.816428 29.8819384 195.977105 29.8819384"></polygon>
                            <polygon id="Fill-37" stroke="none" fill="#CCCCCC" fill-rule="evenodd" mask="url(#mask-5)" points="231.236312 184.070239 247.969832 184.070239 247.969832 146.419439 231.236312 146.419439"></polygon>
                            <polygon id="Fill-38" stroke="none" fill="#FFC107" fill-rule="evenodd" mask="url(#mask-5)" points="213.307988 157.176876 213.307988 151.200946 206.137025 151.200946 206.137025 157.176876 212.710853 157.176876"></polygon>
                            <polygon id="Fill-39" stroke="none" fill="#0D2660" fill-rule="evenodd" mask="url(#mask-5)" points="212.7107 161.957468 206.136872 161.957468 206.136872 167.93416 213.307836 167.93416 213.307836 161.957468"></polygon>
                            <polygon id="Fill-40" stroke="none" fill="#0D2660" fill-rule="evenodd" mask="url(#mask-5)" points="218.089419 157.176266 225.260382 157.176266 225.260382 151.200336 218.089419 151.200336"></polygon>
                            <polygon id="Fill-41" stroke="none" fill="#0D2660" fill-rule="evenodd" mask="url(#mask-5)" points="218.089419 167.933855 225.260382 167.933855 225.260382 161.957925 218.089419 161.957925"></polygon>
                            <polygon id="Fill-42" stroke="none" fill="#0D2660" fill-rule="evenodd" mask="url(#mask-5)" points="262.313361 157.176876 262.313361 151.200946 255.142397 151.200946 255.142397 157.176876 261.716225 157.176876"></polygon>
                            <polygon id="Fill-43" stroke="none" fill="#0D2660" fill-rule="evenodd" mask="url(#mask-5)" points="261.716073 161.957468 255.142245 161.957468 255.142245 167.93416 262.313208 167.93416 262.313208 161.957468"></polygon>
                            <polygon id="Fill-44" stroke="none" fill="#0D2660" fill-rule="evenodd" mask="url(#mask-5)" points="267.094944 157.176266 274.265907 157.176266 274.265907 151.200336 267.094944 151.200336"></polygon>
                            <polygon id="Fill-45" stroke="none" fill="#0D2660" fill-rule="evenodd" mask="url(#mask-5)" points="267.094944 167.933855 274.265907 167.933855 274.265907 161.957925 267.094944 161.957925"></polygon>
                            <polygon id="Fill-46" stroke="none" fill="#FFC107" fill-rule="evenodd" mask="url(#mask-5)" points="311.916784 42.4326881 305.342955 42.4326881 305.342955 48.4086182 312.513156 48.4086182 312.513156 42.4326881"></polygon>
                            <polygon id="Fill-47" stroke="none" fill="#0D2660" fill-rule="evenodd" mask="url(#mask-5)" points="317.295502 48.4083894 324.466466 48.4083894 324.466466 42.4324593 317.295502 42.4324593"></polygon>
                            <polygon id="Fill-48" stroke="none" fill="#0D2660" fill-rule="evenodd" mask="url(#mask-5)" points="312.513309 71.1186779 312.513309 65.1419852 305.343108 65.1419852 305.343108 71.1186779 311.916936 71.1186779"></polygon>
                            <polygon id="Fill-49" stroke="none" fill="#0D2660" fill-rule="evenodd" mask="url(#mask-5)" points="311.916784 75.8995745 305.342955 75.8995745 305.342955 81.8755046 312.513156 81.8755046 312.513156 75.8995745"></polygon>
                            <polygon id="Fill-50" stroke="none" fill="#FFC107" fill-rule="evenodd" mask="url(#mask-5)" points="317.295502 71.117839 324.466466 71.117839 324.466466 65.1419089 317.295502 65.1419089"></polygon>
                            <polygon id="Fill-51" stroke="none" fill="#0D2660" fill-rule="evenodd" mask="url(#mask-5)" points="317.295502 81.8754284 324.466466 81.8754284 324.466466 75.8994983 317.295502 75.8994983"></polygon>
                            <polygon id="Fill-52" stroke="none" fill="#FFC107" fill-rule="evenodd" mask="url(#mask-5)" points="312.513309 104.585946 312.513309 98.6092529 305.343108 98.6092529 305.343108 104.585946 311.916936 104.585946"></polygon>
                            <polygon id="Fill-53" stroke="none" fill="#0D2660" fill-rule="evenodd" mask="url(#mask-5)" points="311.916784 109.366461 305.342955 109.366461 305.342955 115.342391 312.513156 115.342391 312.513156 109.366461"></polygon>
                            <polygon id="Fill-54" stroke="none" fill="#0D2660" fill-rule="evenodd" mask="url(#mask-5)" points="317.295502 104.584878 324.466466 104.584878 324.466466 98.6089478 317.295502 98.6089478"></polygon>
                            <polygon id="Fill-55" stroke="none" fill="#0D2660" fill-rule="evenodd" mask="url(#mask-5)" points="317.295502 115.342467 324.466466 115.342467 324.466466 109.366537 317.295502 109.366537"></polygon>
                            <polygon id="Fill-56" stroke="none" fill="#0D2660" fill-rule="evenodd" mask="url(#mask-5)" points="312.513309 138.052832 312.513309 132.076139 305.343108 132.076139 305.343108 138.052832 311.916936 138.052832"></polygon>
                            <polygon id="Fill-57" stroke="none" fill="#0D2660" fill-rule="evenodd" mask="url(#mask-5)" points="311.916784 142.833729 305.342955 142.833729 305.342955 148.809659 312.513156 148.809659 312.513156 142.833729"></polygon>
                            <polygon id="Fill-58" stroke="none" fill="#0D2660" fill-rule="evenodd" mask="url(#mask-5)" points="317.295502 138.052679 324.466466 138.052679 324.466466 132.076749 317.295502 132.076749"></polygon>
                            <polygon id="Fill-59" stroke="none" fill="#FFC107" fill-rule="evenodd" mask="url(#mask-5)" points="317.295502 148.809506 324.466466 148.809506 324.466466 142.833576 317.295502 142.833576"></polygon>
                            <polygon id="Fill-60" stroke="none" fill="#0D2660" fill-rule="evenodd" mask="url(#mask-5)" points="206.136033 51.9942526 275.460941 51.9942526 275.460941 37.6515627 206.136033 37.6515627"></polygon>
                            <polygon id="Fill-61" stroke="none" fill="#FFC107" fill-rule="evenodd" mask="url(#mask-5)" points="206.136033 80.6811575 275.460941 80.6811575 275.460941 66.337705 206.136033 66.337705"></polygon>
                            <polygon id="Fill-62" stroke="none" fill="#0D2660" fill-rule="evenodd" mask="url(#mask-5)" points="206.136033 109.366537 275.460941 109.366537 275.460941 95.0238473 206.136033 95.0238473"></polygon>
                            <polygon id="Fill-63" stroke="none" fill="#0D2660" fill-rule="evenodd" mask="url(#mask-5)" points="206.136033 138.053442 275.460941 138.053442 275.460941 123.70999 206.136033 123.70999"></polygon>
                            <polygon id="Fill-64" stroke="none" fill="#3F3D56" fill-rule="evenodd" mask="url(#mask-5)" points="177.238644 183.473866 178.971328 183.473866 178.971328 115.003862 177.238644 115.003862"></polygon>
                            <path d="M194.969982,123.728979 C195.080563,147.671593 178.2357,167.158189 178.2357,167.158189 C178.2357,167.158189 161.21162,147.827169 161.101802,123.885317 C160.991222,99.9434654 177.836084,80.4561068 177.836084,80.4561068 C177.836084,80.4561068 194.859401,99.7863647 194.969982,123.728979" id="Fill-65" stroke="none" fill="#FFC107" fill-rule="evenodd" mask="url(#mask-5)"></path>
                            <polygon id="Fill-66" stroke="none" fill="#3F3D56" fill-rule="evenodd" mask="url(#mask-5)" points="350.580274 183.473866 352.312958 183.473866 352.312958 115.003862 350.580274 115.003862"></polygon>
                            <path d="M368.310849,123.728979 C368.422192,147.671593 351.57733,167.158189 351.57733,167.158189 C351.57733,167.158189 334.55325,147.827169 334.443432,123.885317 C334.332851,99.9434654 351.176951,80.4561068 351.176951,80.4561068 C351.176951,80.4561068 368.200268,99.7863647 368.310849,123.728979" id="Fill-67" stroke="none" fill="#FFC107" fill-rule="evenodd" mask="url(#mask-5)"></path>
                        </g>
                    </g>
                    <g id="Group-7" transform="translate(183.092852, 200.905380)">
                        <path d="M29.4081548,101.263161 C43.1235684,101.263161 54.242642,103.765031 54.242642,106.851038 C54.242642,109.937046 43.1235684,112.438129 29.4081548,112.438129 C15.6927413,112.438129 4.57445491,109.937046 4.57445491,106.851038 C4.57445491,103.765031 15.6927413,101.263161 29.4081548,101.263161" id="Fill-1" fill="#FFC107"></path>
                        <path d="M57.5099524,28.7553698 C57.5099524,44.635712 28.7549762,89.5323963 28.7549762,89.5323963 C28.7549762,89.5323963 0,44.635712 0,28.7553698 C0,12.8742403 12.8738467,0.000393623394 28.7549762,0.000393623394 C44.6353184,0.000393623394 57.5099524,12.8742403 57.5099524,28.7553698" id="Fill-3" fill="#FFC107"></path>
                        <path d="M28.7546613,12.4172436 C37.778084,12.4172436 45.0931811,19.7323407 45.0931811,28.7549762 C45.0931811,37.7783989 37.778084,45.093496 28.7546613,45.093496 C19.7312386,45.093496 12.4169287,37.7783989 12.4169287,28.7549762 C12.4169287,19.7323407 19.7312386,12.4172436 28.7546613,12.4172436" id="Fill-5" fill="#F2F2F2"></path>
                    </g>
                    <ellipse id="Oval-Copy-3" fill-opacity="0.97" fill="#ECECEC" cx="99.0936195" cy="404.420281" rx="98.7207472" ry="18.1854008"></ellipse>
                </g>
                <g id="Group-49" transform="translate(37.471663, 95.244735)">
                    <g id="Group-15" transform="translate(10.985388, 5.114565)">
                        <path d="M3.63888074,286.849459 C3.63888074,286.849459 9.02287703,289.540879 12.7920213,290.079741 C16.5605875,290.618025 18.6801891,286.806095 17.8892412,285.482067 C17.0988715,284.15746 20.3291536,285.234028 22.4828677,290.079741 C22.4828677,290.079741 31.6354302,300.847733 37.0194265,301.386017 C42.4034227,301.924301 42.4456298,309.213395 39.7114246,309.461434 C36.7505736,309.730865 31.6354302,311.615726 25.1748659,309.461434 C18.7143016,307.308298 12.7920213,301.386017 10.1000232,301.386017 C7.40802505,301.386017 -1.74511555,297.078589 0.946882595,294.925453 C3.63888074,292.771739 3.63888074,286.849459 3.63888074,286.849459" id="Fill-1" fill="#091423"></path>
                        <path d="M56.7033909,299.01381 C59.4514723,299.224845 62.2163209,299.055438 64.9181481,298.509638 C68.6173329,297.610571 69.1706495,293.284063 67.9449115,292.347992 C66.7191735,291.411921 70.1188619,291.21245 73.9169151,294.912213 C73.9169151,294.912213 86.4125044,301.513274 91.6120618,300.014636 C96.8110411,298.516576 99.5556535,305.26912 97.1093811,306.515095 C92.9603736,308.789648 88.3488235,310.090549 83.6233723,310.320086 C76.8245738,310.718451 69.1151444,309.0082 66.6156796,310.007292 C64.1156366,311.006384 54.0177527,310.4045 55.7181751,307.405489 C57.4185974,304.406478 56.7033909,299.01381 56.7033909,299.01381" id="Fill-3" fill="#091423"></path>
                        <path d="M47.5504816,0.203981303 C59.1470036,0.203981303 68.5476046,9.60516039 68.5476046,21.2011043 C68.5476046,32.7982045 59.1470036,42.1993836 47.5504816,42.1993836 C35.9539595,42.1993836 26.5533586,32.7982045 26.5533586,21.2011043 C26.5533586,9.60516039 35.9539595,0.203981303 47.5504816,0.203981303" id="Fill-5" fill="#FFC1C7"></path>
                        <path d="M31.1294085,29.5465298 C31.1294085,29.5465298 34.3596907,52.1590829 26.8219802,55.3893651 C19.284848,58.6202254 65.0482382,57.5436574 65.0482382,57.5436574 C65.0482382,57.5436574 58.587674,37.0842402 60.2031041,31.7008221 C61.8179561,26.3162477 31.1294085,29.5465298 31.1294085,29.5465298" id="Fill-7" fill="#FFC1C7"></path>
                        <path d="M23.5919294,158.223405 C23.5919294,158.223405 21.9770774,199.141661 20.3616472,203.448511 C18.7462171,207.755362 17.1313651,236.829057 17.1313651,236.829057 L3.13309037,289.591874 L16.0542189,293.898724 C16.0542189,293.898724 33.8216379,262.671892 35.9747739,258.903326 C38.1284881,255.134182 55.3570449,194.834233 55.3570449,194.834233 C55.3570449,194.834233 53.7421929,231.983345 53.7421929,244.366189 C53.7421929,256.749612 56.9724751,301.974718 56.9724751,301.974718 L67.2021837,300.89815 L80.6621744,243.828484 C80.6621744,243.828484 100.043867,166.837105 87.1227387,158.223405 C74.2010319,149.609127 23.5919294,158.223405 23.5919294,158.223405" id="Fill-9" fill="#0C223D"></path>
                        <path d="M102.197639,171.144938 C102.197639,171.144938 102.735923,202.37177 96.2753589,197.526058 C89.8147946,192.680345 96.2753589,168.45294 96.2753589,168.45294 L102.197639,171.144938 Z" id="Fill-11" fill="#FFC1C7"></path>
                        <path d="M12.8239368,160.376888 C12.8239368,160.376888 13.3622208,191.60372 6.9016565,186.758007 C0.441092222,181.912873 6.9016565,157.68489 6.9016565,157.68489 L12.8239368,160.376888 Z" id="Fill-13" fill="#FFC1C7"></path>
                    </g>
                    <g id="Group-18" transform="translate(10.407209, 63.510573)">
                        <mask id="mask-7" fill="white">
                            <use xlink:href="#path-6"></use>
                        </mask>
                        <g id="Clip-17"></g>
                        <path d="M72.6255539,0.224333179 C63.4729915,1.83918516 13.4021729,1.30090117 13.4021729,1.30090117 L13.4021729,1.30090117 C13.4021729,1.30090117 -3.28809997,22.2980241 1.01875016,26.6054525 L1.01875016,26.6054525 C5.32617846,30.9123026 19.3244532,107.364819 19.3244532,107.364819 L19.3244532,107.364819 C19.3244532,107.364819 56.473565,102.519106 69.3952718,102.519106 L69.3952718,102.519106 C82.3169785,102.519106 87.7009748,100.365392 87.7009748,100.365392 L87.7009748,100.365392 C87.7009748,100.365392 70.4718397,65.9082785 78.5478342,50.2951518 L78.5478342,50.2951518 C86.6238286,34.6814469 98.4683892,17.9905958 98.4683892,17.9905958 L98.4683892,17.9905958 L92.5461089,10.9917476 C92.5461089,10.9917476 83.0564685,0.0792104265 74.3225072,0.0792104265 L74.3225072,0.0792104265 C73.7524234,0.0792104265 73.1863868,0.12546469 72.6255539,0.224333179" id="Fill-16" fill="url(#linearGradient-8)" mask="url(#mask-7)"></path>
                    </g>
                    <g id="Group-21" transform="translate(84.992209, 77.965030)">
                        <mask id="mask-10" fill="white">
                            <use xlink:href="#path-9"></use>
                        </mask>
                        <g id="Clip-20"></g>
                        <path d="M2.34798206,33.6869802 C-4.11316039,44.4549728 6.11654819,77.2972345 6.11654819,77.2972345 L6.11654819,77.2972345 C6.11654819,77.2972345 10.4239765,87.5263649 13.6542586,89.1417951 L13.6542586,89.1417951 C16.8845408,90.7566471 17.4228248,108.523488 17.4228248,108.523488 L17.4228248,108.523488 L29.8062475,109.600634 C32.7202661,107.313939 35.2625161,104.589563 37.3433798,101.52464 L37.3433798,101.52464 C41.1125241,96.1412215 34.1130976,70.8360921 31.9599616,65.4520958 L31.9599616,65.4520958 C29.8062475,60.0680995 29.2673853,52.5309672 29.2673853,37.4561245 L29.2673853,37.4561245 C29.2673853,22.3807036 23.883389,3.53613846 23.883389,3.53613846 L23.883389,3.53613846 L14.7308266,0.306434497 C14.7308266,0.306434497 8.80854633,22.9189876 2.34798206,33.6869802" id="Fill-19" fill="url(#linearGradient-11)" mask="url(#mask-10)"></path>
                    </g>
                    <g id="Group-24" transform="translate(0.000000, 75.074139)">
                        <mask id="mask-13" fill="white">
                            <use xlink:href="#path-12"></use>
                        </mask>
                        <g id="Clip-23"></g>
                        <path d="M60.4202101,0.50532783 C50.1910797,1.58189582 36.1928049,2.12075799 32.4236606,2.12075799 L32.4236606,2.12075799 C28.6550945,2.12075799 7.11910935,-0.571818334 3.88882722,13.4264564 L3.88882722,13.4264564 C2.11439803,21.1144932 0.015610814,29.7767604 0,37.8082351 L0,37.8082351 L0,37.9868922 C0.0127199225,44.5116343 1.41538047,50.6114153 5.5036792,55.4218587 L5.5036792,55.4218587 C5.5036792,55.4218587 8.73453951,102.800101 21.1173841,106.030961 L21.1173841,106.030961 C33.5008068,109.261243 66.3430685,113.030388 78.1870509,97.4161047 L78.1870509,97.4161047 C90.0316115,81.802978 85.1864774,64.5744211 85.1864774,64.5744211 L85.1864774,64.5744211 L79.8024811,64.5744211 L65.2659224,23.117881 C65.2659224,23.117881 70.411131,0.471793489 61.0793333,0.469480776 L61.0793333,0.469480776 C60.8665637,0.469480776 60.6480123,0.48162252 60.4202101,0.50532783" id="Fill-22" fill="url(#linearGradient-14)" mask="url(#mask-13)"></path>
                    </g>
                    <g id="Group-33" transform="translate(10.407209, 49.056116)">
                        <polygon id="Fill-25" fill="#3F3D56" points="72.625843 91.669128 76.9326931 62.5960106 74.7795571 92.745696"></polygon>
                        <path d="M0.480639617,85.2081012 C0.480639617,85.2081012 9.63378021,89.5155295 28.477189,86.8235314 L28.477189,94.8995258 L0.480639617,92.7458117 L0.480639617,85.2081012 Z" id="Fill-27" fill="#000000"></path>
                        <polygon id="Fill-29" fill="#3F3D56" points="49.7438009 26.2542091 63.7420756 18.7164987 51.8975151 28.9462073"></polygon>
                        <path d="M79.6246912,18.4471254 C79.6246912,18.4471254 90.3926838,22.2162697 90.3926838,18.4471254 C90.3926838,14.6785593 80.7018374,11.4482772 74.7795571,9.29456301 C68.8566987,7.14084886 40.8607274,3.91056672 36.5532991,2.29513656 C32.2458708,0.680284583 11.7870318,-2.01171356 10.1716017,4.44885071 C8.55674969,10.9099932 8.01788751,24.3694057 16.0944601,25.9848359 C24.1698764,27.600266 45.1675775,23.2928377 55.9355701,24.3694057 C66.7035627,25.4459737 79.6246912,18.4471254 79.6246912,18.4471254" id="Fill-31" fill="#FFC107"></path>
                    </g>
                    <g id="Group-36" transform="translate(19.079884, 49.056116)">
                        <mask id="mask-16" fill="white">
                            <use xlink:href="#path-15"></use>
                        </mask>
                        <g id="Clip-35"></g>
                        <path d="M1.49921632,4.44850381 C-0.115635659,10.9102244 -0.654497831,24.369637 7.4214966,25.9850671 L7.4214966,25.9850671 C11.651449,26.830942 19.4267907,26.0521358 27.4201057,25.2733297 L27.4201057,25.2733297 C34.6866505,24.5650612 42.1347433,23.857371 47.2631848,24.369637 L47.2631848,24.369637 C58.0305992,25.446205 70.9517277,18.4467785 70.9517277,18.4467785 L70.9517277,18.4467785 C70.9517277,18.4467785 81.7202985,22.2159228 81.7202985,18.4467785 L81.7202985,18.4467785 C81.7202985,14.6787906 72.0288739,11.4479303 66.1065936,9.2942161 L66.1065936,9.2942161 C60.1843133,7.14108013 32.1877639,3.91079799 27.8803356,2.29536783 L27.8803356,2.29536783 C25.6566619,1.46163473 19.1255598,0.341125194 13.107302,0.340547016 L13.107302,0.340547016 C7.46890722,0.340547016 2.2803352,1.3240283 1.49921632,4.44850381" id="Fill-34" fill="url(#linearGradient-17)" mask="url(#mask-16)"></path>
                    </g>
                    <g id="Group-48" transform="translate(14.454457, 0.489139)">
                        <polygon id="Fill-37" fill="#3F3D56" points="0.471330947 79.1281517 4.13062138 71.4418495 4.77875925 80.7435819"></polygon>
                        <path d="M40.4427045,1.82334307 C51.2997365,1.82334307 60.1007666,12.0484262 60.1007666,24.6613857 C60.1007666,37.2743453 51.2997365,47.4994284 40.4427045,47.4994284 C29.5856725,47.4994284 20.7846425,37.2743453 20.7846425,24.6613857 C20.7846425,12.0484262 29.5856725,1.82334307 40.4427045,1.82334307" id="Fill-39" fill="#191919"></path>
                        <g id="Group-43" transform="translate(23.705310, 0.000000)">
                            <mask id="mask-19" fill="white">
                                <use xlink:href="#path-18"></use>
                            </mask>
                            <g id="Clip-42"></g>
                            <path d="M20.2064642,0.0888081862 C31.0634962,0.0888081862 39.8645262,5.65435246 39.8645262,12.5196415 C39.8645262,19.3849306 31.0634962,24.9504749 20.2064642,24.9504749 C9.34943213,24.9504749 0.548402113,19.3849306 0.548402113,12.5196415 C0.548402113,5.65435246 9.34943213,0.0888081862 20.2064642,0.0888081862" id="Fill-41" fill="#191919" mask="url(#mask-19)"></path>
                        </g>
                        <path d="M59.2334991,27.8413664 C60.3511178,27.8413664 61.2571232,29.3949315 61.2571232,31.3104361 C61.2571232,33.2259408 60.3511178,34.7795059 59.2334991,34.7795059 C58.1158805,34.7795059 57.2098751,33.2259408 57.2098751,31.3104361 C57.2098751,29.3949315 58.1158805,27.8413664 59.2334991,27.8413664" id="Fill-44" fill="#FFC1C7"></path>
                        <path d="M56.4108905,9.38990461 C58.4790343,8.25783151 60.245369,6.21165852 61.5682409,3.41616646 C61.6977528,4.03712995 61.7324435,4.67486061 61.6717348,5.30680949 C62.5297514,5.21025371 63.3640627,4.95874615 64.1330398,4.56442855 L63.9486009,6.57995809 C65.4345192,5.66932728 66.7995981,4.5765703 68.0126162,3.32597065 C68.3415996,6.26658546 67.8489917,9.23957825 66.5891412,11.9165438 C65.5166205,14.0344109 64.059033,15.4122097 62.6159,16.7697724" id="Fill-46" fill="#191919"></path>
                    </g>
                </g>
            </g>
        </g>
    </g>
</svg>